<?xml version="1.0" standalone="no"?><!DOCTYPE svg PUBLIC "-//W3C//DTD SVG 1.1//EN" "http://www.w3.org/Graphics/SVG/1.1/DTD/svg11.dtd"><svg t="1621064105792" class="icon" viewBox="0 0 1024 1024" version="1.1" xmlns="http://www.w3.org/2000/svg" p-id="4564" xmlns:xlink="http://www.w3.org/1999/xlink" width="200" height="200"><defs><style type="text/css"></style></defs><path d="M741.531826 53.136696a9.48313 9.48313 0 0 0-13.712696 8.525913v75.976348c0 6.500174 3.428174 12.53287 8.859827 16.094608 26.512696 16.695652 51.133217 36.329739 73.616695 58.924522a420.10713 420.10713 0 0 1 123.325218 298.22887c0 56.921043-11.130435 112.194783-33.035131 164.151652a421.220174 421.220174 0 0 1-90.290087 134.077217 417.836522 417.836522 0 0 1-133.965913 90.401391 417.391304 417.391304 0 0 1-163.906782 33.146435c-56.809739 0-112.061217-11.130435-163.906783-33.146435a417.836522 417.836522 0 0 1-133.965913-90.401391 420.10713 420.10713 0 0 1-123.325218-298.228869c0-56.921043 11.130435-112.194783 33.035131-164.151653a421.220174 421.220174 0 0 1 90.290087-134.077217 427.809391 427.809391 0 0 1 73.616696-58.924522 18.921739 18.921739 0 0 0 8.882086-16.094608V61.529043a9.527652 9.527652 0 0 0-13.734956-8.503652C117.76 136.325565 3.539478 306.866087 1.179826 504.498087c-3.31687 282.601739 227.817739 517.38713 510.308174 517.988174 282.824348 0.601043 512.178087-228.752696 512.178087-511.710609 0-200.236522-114.799304-373.626435-282.134261-457.638956z" p-id="4565" fill="#8a8a8a"></path><path d="M474.557217 568.05287h75.731479a9.505391 9.505391 0 0 0 9.48313-9.483131V9.46087A9.505391 9.505391 0 0 0 550.288696 0h-75.731479a9.505391 9.505391 0 0 0-9.460869 9.46087v549.108869c0 5.209043 4.251826 9.48313 9.460869 9.483131z" p-id="4566" fill="#8a8a8a"></path></svg>